<?xml version="1.0" standalone="yes"?><!DOCTYPE svg PUBLIC "-//W3C//DTD SVG 1.1//EN" "http://www.w3.org/Graphics/SVG/1.1/DTD/svg11.dtd"[
<!ENTITY E8 'M 6.1087 10.559 10.5315 10.559 C 10.69669 10.559 10.82968 10.69199 10.82968 10.85718 10.82968 11.02237 10.69669 11.15536 10.5315 11.15536 L 6.1087 11.15536 C 5.94351 11.15536 5.81052 11.02237 5.81052 10.85718 5.81052 10.69199 5.94351 10.559 6.1087 10.559 z M 6.147233 12.8273 10.57003 12.8273 C 10.73522 12.8273 10.86821 12.96029 10.86821 13.12548 10.86821 13.29067 10.73522 13.42366 10.57003 13.42366 L 6.147233 13.42366 C 5.982043 13.42366 5.849053 13.29067 5.849053 13.12548 5.849053 12.96029 5.982043 12.8273 6.147233 12.8273 z M 6.147233 15.0956 10.57003 15.0956 C 10.73522 15.0956 10.86821 15.22859 10.86821 15.39378 10.86821 15.55897 10.73522 15.69196 10.57003 15.69196 L 6.147233 15.69196 C 5.982043 15.69196 5.849053 15.55897 5.849053 15.39378 5.849053 15.22859 5.982043 15.0956 6.147233 15.0956 z '><!ENTITY E4 'matrix(1.00 0.00 0.00 1.00 84.00 4.00 ) '><!ENTITY E3 'stroke:rgb(169,169,169);fill:none;stroke-linecap:butt;stroke-miterlimit:9;opacity:1;stroke-width:2;stroke-linejoin:miter;'><!ENTITY E11 'matrix(1.00 0.00 0.00 1.00 0.00 0.00 ) '><!ENTITY E13 'matrix(1.00 0.00 0.00 1.00 4.00 4.00 ) '><!ENTITY E7 'stroke:none;fill-rule:evenodd;opacity:1;fill:rgb(255,255,255);'>
]><svg width="148.549" height="52.82519" id="SvgGdi_output" xmlns="http://www.w3.org/2000/svg" xmlns:xlink="http://www.w3.org/1999/xlink"><rect id="background" height="100.00%" style="fill:rgb(255,255,255);" width="100.00%" y="0.00" x="0.00" /><g style="shape-rendering:auto;" id="root_group"><line y1="19.00" id="46" x2="80.00" y2="19.00" x1="38.00" style="stroke:rgb(169,169,169);fill:none;stroke-linecap:butt;stroke-miterlimit:9;opacity:1;stroke-width:1;stroke-linejoin:miter;" /><path style="&E3;" transform="&E4;" id="47" d="M 10.158 33.2 C 3.4054 31.7591 -1.861 26.4692 -3.271 19.71 " /><ellipse id="48" cy="15.00" cx="15.00" transform="&E4;" rx="15.00" ry="15.00" style="stroke:none;opacity:1;fill:rgb(155,91,179);" /><path style="&E7;" transform="&E4;" id="49" d="M 11.656 8.2 11.99975 8.7 16.31225 14.7937 11.65605 21.4187 11.28105 21.9187 14.74985 21.9187 14.8436 21.7624 17.9998 17.0124 18.46855 17.7 21.15605 21.7624 21.2498 21.9187 24.7498 21.9187 24.40605 21.4187 19.65605 14.6687 24.06225 8.699997 24.406 8.199997 20.9998 8.199997 20.90605 8.324997 18.68725 11.4187 C 18.46251 11.7285 18.22333 12.1062 17.9685 12.4812 17.77046 12.1547 17.58677 11.8424 17.31225 11.4187 L 15.28105 8.356197 15.1873 8.199997 11.6561 8.199997 z " /><path d="&E8;" style="&E7;" transform="&E4;" id="50" /><path d="&E8;" transform="&E4;" id="51" style="stroke:rgb(255,255,255);fill:none;stroke-linecap:butt;stroke-miterlimit:9;opacity:1;stroke-width:0.86707;stroke-linejoin:miter;" /><text id="52" transform="&E11;" x="84.00px" y="39.00px" style="stroke:none;clip-path:url(#54_text_clipper);font-family:Microsoft Sans Serif;fill:rgb(0,0,0);font-size:8.25pt;opacity:1;"><tspan dy="8.25pt" id="56">NewModule</tspan></text><path style="&E3;" transform="&E13;" id="58" d="M 31.179 5.2 C 34.9985 11.0918 34.9814 18.682 31.13552 24.557 " /><ellipse id="59" cy="15.00" cx="15.00" transform="&E13;" rx="15.00" ry="15.00" style="stroke:none;opacity:1;fill:rgb(91,178,126);" /><path style="&E7;" transform="&E13;" id="60" d="M 10.824 9.4752 3.5613 15.0588 10.824 20.6107 10.81521 18.3247 6.519011 15.0267 10.82391 11.7422 z " /><path style="&E7;" transform="&E13;" id="61" d="M 15.365 7.2336 C 15.34647 7.33547 15.32125 7.4371 15.31422 7.5375 14.41077 12.6441 13.49692 17.7495 12.59942 22.8575 12.59508 22.88635 12.6018 22.91223 12.59942 22.94062 L 14.62872 22.94062 C 14.70348 22.53324 14.73679 22.1026 14.8377 21.71462 15.68204 16.94102 16.5365 12.17012 17.3748 7.394619 17.38163 7.340435 17.37866 7.287239 17.3787 7.233579 z " /><path style="&E7;" transform="&E13;" id="62" d="M 19.044 9.4746 26.3067 15.0582 19.044 20.6101 19.05279 18.3241 23.34899 15.0261 19.04409 11.7416 z " /><text id="63" transform="&E11;" x="4.00px" y="39.00px" style="stroke:none;clip-path:url(#65_text_clipper);font-family:Microsoft Sans Serif;fill:rgb(0,0,0);font-size:8.25pt;opacity:1;"><tspan dy="8.25pt" id="67">CreateModule</tspan></text></g><defs id="clips_hatches_and_gradients"><clipPath id="54_text_clipper"><rect x="84.00" y="39.00" width="63.55" height="13.83" id="55" /></clipPath><clipPath id="65_text_clipper"><rect x="4.00" y="39.00" width="74.89" height="13.83" id="66" /></clipPath></defs></svg>